<svg width="113" height="113" viewBox="0 0 113 113" fill="none" xmlns="http://www.w3.org/2000/svg">
<path fill-rule="evenodd" clip-rule="evenodd" d="M55.391 10.5795C45.7406 10.4312 36.2737 13.2247 28.2498 18.5884C9.36822 31.2056 1.99497 55.5183 10.6854 76.501C19.3723 97.4837 41.771 109.448 64.0461 105.02C86.3212 100.588 102.434 80.9538 102.434 58.2443H102.413V52.9474H60.0381V67.0724H87.6525C86.012 73.2157 82.6814 78.7761 78.039 83.1212C73.3967 87.4664 67.6288 90.4225 61.3906 91.6537C53.6597 93.2047 45.63 92.0204 38.676 88.3035C31.7221 84.5865 26.2763 78.568 23.2708 71.2783C20.2424 63.9991 19.838 55.8938 22.1268 48.3493C24.4155 40.8048 29.2551 34.2899 35.8173 29.9202C42.3654 25.5288 50.2364 23.5502 58.0828 24.3233C65.9291 25.0963 73.2627 28.5731 78.8279 34.1579L88.4682 24.5246C79.6833 15.74 67.8135 10.7357 55.391 10.5795Z" fill="#EA4335"/>
<path fill-rule="evenodd" clip-rule="evenodd" d="M22.2649 68.5169L10.9473 77.0554C19.8036 97.6849 41.9728 109.412 64.0467 105.023C73.9527 103.042 82.9697 97.9552 89.7895 90.5023L79.1251 81.9707C75.0271 86.2033 69.8996 89.2986 64.2452 90.9528C58.5908 92.6069 52.6037 92.7632 46.8706 91.4067C41.1375 90.0501 35.8554 87.2271 31.5419 83.2144C27.2284 79.2016 24.0316 74.1371 22.2649 68.5169Z" fill="#34A853"/>
<path fill-rule="evenodd" clip-rule="evenodd" d="M15.8764 30.6232C6.61042 43.6994 4.26567 61.0094 10.6855 76.501C10.8303 76.8542 11.1375 77.5567 11.1375 77.5567C15.9188 74.7953 19.45 72.3729 22.8118 70.0847C20.91 64.9868 20.2599 59.5066 20.9162 54.1053C21.5724 48.7039 23.5159 43.539 26.5832 39.0449C19.45 33.5291 19.45 33.5294 15.8764 30.6232Z" fill="#FBBC05"/>
<path fill-rule="evenodd" clip-rule="evenodd" d="M60.0381 52.9513V67.0763H87.6525C86.1322 72.6904 83.1944 77.8191 79.121 81.9707L89.7924 90.5023C97.9077 81.7201 102.421 70.2058 102.434 58.2482H102.413V52.9513H60.0381Z" fill="#4788F4"/>
</svg>
