<svg width="159" height="159" viewBox="0 0 159 159" fill="none" xmlns="http://www.w3.org/2000/svg">
<path d="M135.15 0H23.85C10.678 0 0 10.678 0 23.85V135.15C0 148.322 10.678 159 23.85 159H135.15C148.322 159 159 148.322 159 135.15V23.85C159 10.678 148.322 0 135.15 0Z" fill="#1877F2"/>
<path d="M110.43 102.48L113.971 79.5H91.9219V64.5938C91.9219 58.3207 94.9963 52.1719 104.872 52.1719H114.902V32.6074C114.902 32.6074 105.803 31.0547 97.108 31.0547C78.941 31.0547 67.0781 42.0481 67.0781 61.9852V79.5H46.8926V102.48H67.0781V159H91.9219V102.48H110.43Z" fill="white"/>
</svg>
