<svg width="171" height="171" viewBox="0 0 171 171" fill="none" xmlns="http://www.w3.org/2000/svg">
<path d="M131.157 29.583C129.128 29.583 127.144 30.1847 125.457 31.3121C123.77 32.4395 122.455 34.0419 121.678 35.9167C120.901 37.7914 120.698 39.8544 121.094 41.8446C121.49 43.8349 122.467 45.663 123.902 47.0979C125.337 48.5328 127.165 49.51 129.155 49.9059C131.146 50.3017 133.209 50.0986 135.083 49.322C136.958 48.5454 138.56 47.2304 139.688 45.5432C140.815 43.8559 141.417 41.8722 141.417 39.843C141.417 37.1219 140.336 34.5122 138.412 32.5881C136.488 30.664 133.878 29.583 131.157 29.583ZM170.487 50.274C170.321 43.18 168.992 36.1614 166.554 29.4975C164.38 23.7958 160.996 18.6328 156.636 14.364C152.402 9.98149 147.227 6.61921 141.503 4.5315C134.856 2.01917 127.83 0.660145 120.726 0.513C111.663 -4.77768e-07 108.756 0 85.5 0C62.244 0 59.337 -4.77768e-07 50.274 0.513C43.1703 0.660145 36.1438 2.01917 29.4975 4.5315C23.7833 6.64035 18.6128 9.99974 14.364 14.364C9.98149 18.5978 6.61921 23.7728 4.5315 29.4975C2.01917 36.1438 0.660145 43.1703 0.513 50.274C-4.77768e-07 59.337 0 62.244 0 85.5C0 108.756 -4.77768e-07 111.663 0.513 120.726C0.660145 127.83 2.01917 134.856 4.5315 141.503C6.61921 147.227 9.98149 152.402 14.364 156.636C18.6128 161 23.7833 164.36 29.4975 166.468C36.1438 168.981 43.1703 170.34 50.274 170.487C59.337 171 62.244 171 85.5 171C108.756 171 111.663 171 120.726 170.487C127.83 170.34 134.856 168.981 141.503 166.468C147.227 164.381 152.402 161.019 156.636 156.636C161.016 152.383 164.402 147.216 166.554 141.503C168.992 134.839 170.321 127.82 170.487 120.726C170.487 111.663 171 108.756 171 85.5C171 62.244 171 59.337 170.487 50.274ZM155.097 119.7C155.035 125.127 154.052 130.505 152.19 135.603C150.825 139.324 148.632 142.686 145.777 145.436C143.004 148.261 139.649 150.45 135.945 151.848C130.847 153.71 125.469 154.693 120.042 154.755C111.492 155.183 108.329 155.268 85.842 155.268C63.3555 155.268 60.192 155.268 51.642 154.755C46.0066 154.861 40.3953 153.993 35.055 152.19C31.5134 150.72 28.3121 148.537 25.65 145.777C22.8122 143.031 20.6469 139.666 19.323 135.945C17.2356 130.774 16.0778 125.274 15.903 119.7C15.903 111.15 15.39 107.987 15.39 85.5C15.39 63.0135 15.39 59.85 15.903 51.3C15.9413 45.7515 16.9542 40.2529 18.8955 35.055C20.4007 31.4461 22.7111 28.2292 25.65 25.65C28.2476 22.7102 31.4579 20.3755 35.055 18.81C40.2667 16.9294 45.7596 15.9464 51.3 15.903C59.85 15.903 63.0135 15.39 85.5 15.39C107.987 15.39 111.15 15.39 119.7 15.903C125.127 15.9652 130.505 16.9482 135.603 18.81C139.488 20.252 142.976 22.5963 145.777 25.65C148.579 28.2764 150.769 31.4874 152.19 35.055C154.09 40.2614 155.074 45.7577 155.097 51.3C155.525 59.85 155.61 63.0135 155.61 85.5C155.61 107.987 155.525 111.15 155.097 119.7ZM85.5 41.6385C76.8287 41.6554 68.3569 44.2422 61.1552 49.072C53.9535 53.9019 48.3449 60.758 45.0383 68.7741C41.7316 76.7902 40.8752 85.6066 42.5772 94.1092C44.2793 102.612 48.4634 110.419 54.601 116.545C60.7385 122.67 68.554 126.839 77.06 128.525C85.5659 130.21 94.3806 129.337 102.39 126.014C110.4 122.692 117.245 117.07 122.061 109.859C126.877 102.648 129.447 94.1713 129.447 85.5C129.458 79.7296 128.329 74.014 126.123 68.6818C123.918 63.3496 120.679 58.506 116.595 54.4297C112.511 50.3534 107.661 47.1248 102.325 44.9296C96.9882 42.7344 91.2703 41.6159 85.5 41.6385ZM85.5 113.972C79.8689 113.972 74.3642 112.302 69.6821 109.173C65 106.045 61.3507 101.598 59.1958 96.3956C57.0408 91.1931 56.477 85.4684 57.5756 79.9455C58.6742 74.4226 61.3858 69.3494 65.3676 65.3676C69.3494 61.3858 74.4226 58.6742 79.9455 57.5756C85.4684 56.477 91.1931 57.0408 96.3956 59.1958C101.598 61.3507 106.045 65 109.173 69.6821C112.302 74.3642 113.972 79.8689 113.972 85.5C113.972 89.2389 113.235 92.9413 111.804 96.3956C110.373 99.8499 108.276 102.989 105.632 105.632C102.989 108.276 99.8499 110.373 96.3956 111.804C92.9413 113.235 89.2389 113.972 85.5 113.972Z" fill="black"/>
</svg>
