<svg width="176" height="176" viewBox="0 0 176 176" fill="none" xmlns="http://www.w3.org/2000/svg">
<path d="M88 176C136.601 176 176 136.601 176 88C176 39.3989 136.601 0 88 0C39.3989 0 0 39.3989 0 88C0 136.601 39.3989 176 88 176Z" fill="#1DA1F2"/>
<path d="M133.719 60.9813C130.488 62.4079 127.033 63.3704 123.389 63.8173C127.102 61.5829 129.955 58.0595 131.295 53.8657C127.824 55.8938 123.956 57.372 119.866 58.197C116.583 54.6907 111.925 52.4907 106.734 52.4907C96.8001 52.4907 88.7392 60.5517 88.7392 70.4688C88.7392 71.8954 88.911 73.2704 89.2032 74.5767C74.2501 73.872 60.9814 66.6876 52.1126 55.8251C50.5485 58.472 49.672 61.5313 49.672 64.8829C49.672 71.1392 52.8517 76.6392 57.6814 79.8704C54.7251 79.7673 51.9579 78.9595 49.5345 77.6189V77.8423C49.5345 86.5735 55.722 93.8438 63.972 95.4938C62.4595 95.9063 60.861 96.1126 59.2282 96.1126C58.0767 96.1126 56.9767 96.0095 55.8767 95.8032C58.1798 102.953 64.8142 108.161 72.7204 108.299C66.5845 113.128 58.7813 115.999 50.411 115.999C48.9845 115.999 47.5579 115.913 46.1313 115.758C54.1407 120.863 63.5767 123.836 73.7689 123.836C106.855 123.836 124.953 96.422 124.953 72.686C124.953 71.9298 124.953 71.1563 124.902 70.3829C128.408 67.8563 131.484 64.6767 133.891 61.0673L133.719 60.9813Z" fill="white"/>
</svg>
