<svg width="170" height="127" viewBox="0 0 170 127" fill="none" xmlns="http://www.w3.org/2000/svg">
<path d="M166.125 41.9365C167.415 40.9112 169.333 41.8703 169.333 43.4909V111.125C169.333 119.889 162.223 127 153.458 127H15.875C7.11068 127 0 119.889 0 111.125V43.524C0 41.8703 1.88516 40.9443 3.20807 41.9695C10.6164 47.7242 20.4391 55.0333 54.1734 79.5404C61.1518 84.6336 72.9258 95.3492 84.6667 95.2831C96.4737 95.3823 108.479 84.4352 115.193 79.5404C148.927 55.0333 158.717 47.6911 166.125 41.9365ZM84.6667 84.6667C92.3396 84.799 103.386 75.0094 108.942 70.9745C152.83 39.1253 156.17 36.3471 166.291 28.4096C168.209 26.9214 169.333 24.6062 169.333 22.1589V15.875C169.333 7.11068 162.223 0 153.458 0H15.875C7.11068 0 0 7.11068 0 15.875V22.1589C0 24.6062 1.12448 26.8883 3.04271 28.4096C13.163 36.3141 16.5034 39.1253 60.3911 70.9745C65.9474 75.0094 76.9937 84.799 84.6667 84.6667Z" fill="black"/>
</svg>
