<svg width="128" height="128" viewBox="0 0 128 128" fill="none" xmlns="http://www.w3.org/2000/svg">
<path d="M124.35 90.4493L96.3493 78.4491C95.1531 77.9393 93.8237 77.8319 92.5612 78.1431C91.2987 78.4542 90.1715 79.167 89.3491 80.1742L76.9489 95.3244C57.4879 86.1488 41.8263 70.4871 32.6506 51.0261L47.8009 38.6259C48.8101 37.8051 49.5244 36.6778 49.8356 35.4147C50.1469 34.1517 50.0382 32.8216 49.5259 31.6258L37.5257 3.6253C36.9635 2.3363 35.9691 1.28387 34.714 0.649491C33.4589 0.0151131 32.0219 -0.161454 30.6506 0.150236L4.65008 6.15034C3.32798 6.45564 2.1484 7.20006 1.30386 8.26209C0.459321 9.32412 -0.000304558 10.6411 1.51408e-07 11.9979C1.51408e-07 76.1241 51.9759 128 116.002 128C117.359 128.001 118.677 127.542 119.739 126.697C120.802 125.852 121.547 124.672 121.852 123.35L127.852 97.3495C128.162 95.9715 127.982 94.5287 127.342 93.2693C126.703 92.0099 125.645 91.0127 124.35 90.4493Z" fill="black"/>
</svg>
