<svg width="384" height="104" viewBox="0 0 384 104" fill="none" xmlns="http://www.w3.org/2000/svg">
<g clip-path="url(#clip0_1_196)">
<path d="M50.0376 101.973H0V77.5402H4.13772V24.3955H0V0H50.0376V32.6149H36.2388V24.3955H24.3645V40.0837H34.6414V60.8387H24.3645V77.5402H36.2388V69.3584H50.0376V101.973Z" fill="#50603A"/>
<path d="M90.5488 72.7737L104.656 78.8162C104.061 82.7331 103.075 86.3815 101.754 89.5509C100.432 92.7203 98.8024 95.3478 96.9575 97.2818C92.4756 101.935 87.4438 104.2 82.3696 103.85C74.6715 103.85 68.6349 100.484 64.2598 93.7538C62.1548 90.5839 60.4657 86.4847 59.3315 81.7933C58.1973 77.102 57.6503 71.9526 57.7357 66.7686C57.6714 61.6832 58.1911 56.6341 59.2566 51.991C60.3222 47.3478 61.9067 43.2281 63.8942 39.9335C68.1893 32.8704 73.6753 29.1659 79.2904 29.5373C83.5413 29.021 87.7665 31.15 91.3571 35.6174V30.8509H102.904V61.2139H91.3571C89.933 53.1071 87.5145 49.0537 84.1017 49.0537C83.0607 48.9638 82.0252 49.3921 81.0926 50.2982C80.1599 51.2043 79.3609 52.5585 78.7707 54.2331C77.4625 58.0752 76.7907 62.6081 76.8462 67.219C76.7135 71.9119 77.4437 76.5432 78.9055 80.28C79.5188 81.8049 80.3062 83.0298 81.2049 83.8572C82.1036 84.6847 83.0889 85.0919 84.0824 85.0465C87.5851 85.0465 89.7405 80.9555 90.5488 72.7737Z" fill="#50603A"/>
<path d="M110.583 66.0556C110.589 60.9515 111.204 55.9202 112.38 51.3602C113.556 46.8002 115.26 42.8367 117.357 39.7835C121.861 32.5775 127.949 28.9869 135.621 29.012C142.307 28.4146 148.911 32.0626 154.443 39.4082C156.692 42.3912 158.528 46.4126 159.787 51.1142C161.046 55.8159 161.69 61.0519 161.66 66.3559C161.681 71.5816 161.065 76.7424 159.864 81.414C158.663 86.0856 156.911 90.1347 154.751 93.2285C150.132 100.435 144.044 104.025 136.487 104C128.314 104 121.951 100.41 117.396 93.2285C115.243 90.0659 113.504 85.9561 112.32 81.2341C111.136 76.512 110.541 71.3113 110.583 66.0556ZM129.713 66.0556C129.713 77.3902 131.791 83.0574 135.948 83.0574C140.375 83.0574 142.569 77.3151 142.569 65.9055C142.705 61.6202 142.139 57.3614 140.952 53.7453C140.42 52.3271 139.716 51.1875 138.904 50.428C138.091 49.6684 137.195 49.3124 136.295 49.3916C135.382 49.3179 134.474 49.6673 133.644 50.4111C132.815 51.1548 132.087 52.2718 131.522 53.6702C130.171 57.2936 129.529 61.7401 129.713 66.2058V66.0556Z" fill="#50603A"/>
<path d="M198.803 101.973H167.049V77.5402H172.534V24.3955H166.76V0H218.26V33.7784H204.346V24.3955H192.664V40.0837H201.671V60.8387H192.664V77.5402H198.707L198.803 101.973Z" fill="#50603A"/>
<path d="M212.833 66.0556C212.84 60.9557 213.453 55.9285 214.625 51.3696C215.798 46.8107 217.496 42.8446 219.588 39.7835C224.117 32.5774 230.205 28.9869 237.852 29.0119C244.543 28.4172 251.153 32.0646 256.693 39.4082C258.96 42.405 260.81 46.4535 262.077 51.19C263.343 55.9264 263.986 61.2023 263.948 66.5435C263.965 71.772 263.346 76.9337 262.142 81.6051C260.937 86.2764 259.182 90.3242 257.02 93.4161C252.414 100.622 246.326 104.213 238.756 104.188C230.596 104.188 224.232 100.597 219.665 93.4161C217.494 90.2409 215.742 86.1032 214.554 81.3454C213.366 76.5876 212.776 71.3464 212.833 66.0556ZM231.963 66.0556C231.963 77.3901 234.041 83.0574 238.198 83.0574C242.605 83.0574 244.818 77.3151 244.818 65.9055C244.955 61.6202 244.389 57.3614 243.202 53.7452C242.67 52.3839 241.977 51.2916 241.184 50.5601C240.39 49.8287 239.518 49.4794 238.641 49.5417C237.727 49.4858 236.819 49.843 235.987 50.5852C235.156 51.3275 234.424 52.4347 233.849 53.8203C232.499 57.3935 231.831 61.7746 231.963 66.2057V66.0556Z" fill="#50603A"/>
<path d="M270.569 66.0556C270.575 60.9557 271.189 55.9285 272.361 51.3696C273.533 46.8107 275.232 42.8446 277.324 39.7835C281.853 32.5774 287.941 28.9869 295.587 29.0119C302.279 28.4172 308.889 32.0646 314.429 39.4082C316.696 42.405 318.546 46.4535 319.812 51.19C321.079 55.9264 321.722 61.2023 321.684 66.5435C321.701 71.772 321.082 76.9337 319.877 81.6051C318.673 86.2764 316.918 90.3242 314.756 93.4161C310.15 100.622 304.062 104.213 296.492 104.188C288.332 104.188 281.968 100.597 277.401 93.4161C275.23 90.2409 273.478 86.1032 272.29 81.3454C271.102 76.5876 270.512 71.3464 270.569 66.0556ZM289.698 66.0556C289.698 77.3901 291.777 83.0574 295.934 83.0574C300.341 83.0574 302.554 77.3151 302.554 65.9055C302.691 61.6202 302.125 57.3614 300.938 53.7452C300.405 52.3839 299.713 51.2916 298.92 50.5601C298.126 49.8287 297.254 49.4794 296.377 49.5417C295.463 49.4858 294.555 49.843 293.723 50.5852C292.892 51.3275 292.16 52.4347 291.584 53.8203C290.234 57.3935 289.567 61.7746 289.698 66.2057V66.0556Z" fill="#50603A"/>
<path d="M384 79.6045V102.123H360.367V97.2068C356.664 101.352 352.453 103.454 348.185 103.287C343.229 103.413 338.406 100.176 334.54 94.1292C332.551 90.9832 330.975 86.9602 329.941 82.3922C328.907 77.8242 328.445 72.8421 328.593 67.8571C328.593 55.5968 330.421 46.1138 334.078 39.4082C338.138 32.5251 343.408 28.9743 348.781 29.4998C352.836 29.2876 356.84 31.3174 360.328 35.3547V22.5189H355.652V0H379.227V79.6045H384ZM360.463 66.1306C360.555 62.1478 360.003 58.2092 358.885 54.8712C358.345 53.4178 357.622 52.2604 356.786 51.5109C355.95 50.7614 355.029 50.4451 354.112 50.5926C349.84 50.5926 347.684 55.9971 347.684 66.7687C347.612 70.665 348.163 74.5085 349.262 77.7654C349.801 79.2654 350.533 80.4615 351.384 81.2326C352.236 82.0037 353.177 82.3224 354.112 82.1566C354.984 82.2269 355.854 81.9278 356.661 81.2799C357.469 80.632 358.194 79.6507 358.789 78.4035C360.092 74.8445 360.687 70.4823 360.463 66.1306Z" fill="#50603A"/>
</g>
<defs>
<clipPath id="clip0_1_196">
<rect width="384" height="104" fill="white"/>
</clipPath>
</defs>
</svg>
